<svg id="svg" fill="#000000" stroke="#000000" width="200px" height="200px" version="1.1" viewBox="144 144 512 512" xmlns="http://www.w3.org/2000/svg">
    <g id="IconSvg_bgCarrier" stroke-width="0"></g>
    <g id="IconSvg_tracerCarrier" stroke-linecap="round" stroke-linejoin="round" stroke="#CCCCCC"></g>
     <g id="IconSvg_iconCarrier">
      <path xmlns="http://www.w3.org/2000/svg" d="m610.82 294.03c-0.45312-0.8125-1.1094-1.5195-1.957-2.0273-0.13281-0.078125-0.27344-0.16016-0.41406-0.22656l-168.83-84.383c-1.0859-0.54688-2.3359-0.73438-3.5234-0.46875l-226.6 45.824c-2.2305 0.44141-3.9375 2.2148-4.3125 4.457-0.375 2.2422 0.67578 4.4727 2.6367 5.6211l28.457 16.625c3.332 7.0273 3.7031 15.605 1.6914 24.289l-43.094 14.359c-1.9961 0.66797-3.4375 2.4297-3.6953 4.5117-0.26172 2.0977 0.70703 4.1523 2.4766 5.2852l61.43 39.324-55.707 15.438c-0.98828 0.27734-1.7617 0.86328-2.418 1.5547-0.070313 0.074218-0.1875 0.0625-0.25391 0.14453-7.0391 8.168-12.074 19.688-14.168 32.461-1.9609 11.918-1.1289 23.812 2.3438 33.461 0.40625 1.1211 1.1602 2.082 2.1602 2.7227l196.23 127.67c0.058594 0.039063 0.13281 0.023437 0.1875 0.058594 0.84375 0.50781 1.7773 0.82031 2.7578 0.82812 0.011718 0 0.023437 0.011718 0.035156 0.011718h0.003906 0.003906c0.003907 0 0.007813-0.003906 0.015626-0.003906 0.67578-0.003906 1.3477-0.13281 1.9883-0.38281l39.629-15.668 10.281 24.355c0.87891 2.082 2.8828 3.3242 5.0039 3.3242 0.69922 0 1.4062-0.13281 2.0977-0.42578 1.043-0.42578 1.8672-1.1328 2.4492-2.0039l16.625-20.383 24.574 3.1914c0.96094 0.10547 2.6875-0.32031 3.582-0.69531 1.3398-0.5625 2.4023-1.6289 2.9492-2.9766 0.55469-1.3477 0.53906-2.8555-0.019531-4.1914l-9.7227-23.039 113.87-45.02c1.957-0.77344 3.2969-2.6016 3.4453-4.6992 0.15234-2.0977-0.91406-4.0977-2.7422-5.1367l-39.406-22.5c-0.30469-8.9141 1.6562-17.25 6.1758-23.387l31.105-10.855c2.1406-0.74609 3.5977-2.75 3.6641-5.0039 0.058594-2.2695-1.2812-4.3516-3.3789-5.207l-66.254-27.418 74.902-30.258c1.1016-0.45312 2.0352-1.2422 2.6445-2.2695 5.2578-8.7969 8.3555-20.301 8.7305-32.395 0.37891-12.895-2.3281-25.133-7.6406-34.492zm-174.41-76.027 155.64 77.801-190.84 67.34-175.5-102.54zm-40.227 154.86c5.1914 12.48 6.1328 24.391 2.9062 39.477-2.5508 11.906-5.6797 18.566-12.195 26.27l-156.4-100.12c14.223-14.156 21.398-33.98 19.168-51.223zm-163.14-55.957c-3.0195 5.7266-7.0859 11.02-12.02 15.527l-11.844-7.582zm-39.73 101.67c1.457-8.8477 4.6367-17.152 8.918-23.477l178.79 105.29c-7.1562 12.07-10.504 24.914-10.207 40.945 0.14062 7.8477 0.86719 14.039 2.4922 19.812l-178.71-116.27c-2.3633-7.6367-2.8242-16.887-1.2812-26.309zm269.42 140.56c-1.8945-0.1875-3.75 0.50781-4.9453 1.9609l-13.105 16.082-21.402-50.707c11.078-4.4102 26.039-10.414 37.406-14.98l12.719 30.145c0.003907 0.003906 0 0.007813 0.003907 0.011719l0.007812 0.007812 8.4219 19.961zm122.23-67.473-13.121 5.1875c-3.9453-5.3555-6.9023-11.387-8.7461-17.672zm-23.598 9.3281-79.914 31.594-10.621-25.168c1.8594-0.74609 3.4688-1.3945 4.5508-1.8281 2.8047-1.1328 4.1562-4.3125 3.0312-7.1133-1.1289-2.8047-4.3164-4.1523-7.1133-3.0312-3.0898 1.2422-6.3789 2.5664-9.7734 3.9336-0.007812 0.003907-0.015625 0.003907-0.023438 0.003907-0.007812 0.003906-0.011718 0.007812-0.015624 0.011719-16.852 6.7734-36.289 14.562-47.516 19.016-0.011718 0.003907-0.019531 0.003907-0.03125 0.007813-0.007812 0.003906-0.011718 0.011719-0.019531 0.015625-5.0391 1.9961-8.457 3.3398-9.1484 3.5742-2.8633 0.93359-4.4375 4.0039-3.5039 6.875 0.74609 2.3086 2.8906 3.7891 5.1992 3.7891 0.55469 0 1.1289-0.09375 1.6836-0.26562 0.48438-0.15625 2.332-0.87109 4.9648-1.9023l10.523 24.93-34.957 13.816c-4.918-8.7969-6.707-15.93-6.9258-28.113-0.28125-15.406 2.9219-26.93 10.414-38.168l160.22-55.922c-5.5078 16.484-2.2695 37.316 8.9727 53.945zm19.637-75.516-191.9 66.977-174.38-102.7 52.738-14.621 117.57 75.258c0.89453 0.57422 1.9219 0.86719 2.9492 0.86719 0.69531 0 1.3867-0.13281 2.0469-0.40234l127.7-51.586zm20.227-71.719-85.547 34.551c-0.015625 0.007812-0.03125 0.011719-0.046875 0.019531l-112.11 45.277c2.7031-5.3594 4.6055-11.297 6.2539-18.973 3.3555-15.691 2.5312-28.945-2.1719-42.164l195.66-69.035c2.9883 7.0195 4.5195 15.789 4.25 24.746-0.28906 9.5508-2.5156 18.547-6.2969 25.578z"></path>

      </g>
      </svg>